<?xml version="1.0" standalone="no"?><!DOCTYPE svg PUBLIC "-//W3C//DTD SVG 1.1//EN" "http://www.w3.org/Graphics/SVG/1.1/DTD/svg11.dtd"><svg t="1653643920245" class="icon" viewBox="0 0 1024 1024" version="1.1" xmlns="http://www.w3.org/2000/svg" p-id="3078" xmlns:xlink="http://www.w3.org/1999/xlink" width="32" height="32"><defs><style type="text/css"></style></defs><path d="M27.217608 514.262767a27.486272 27.486272 0 0 1-26.785642-22.204597L0.000808 487.315441c0-14.874924 11.533455-26.947326 27.2168-26.947326h53.355705l3.287574 0.269473a431.265003 431.265003 0 0 1 401.353471-378.987191 2.964206 2.964206 0 0 1-0.161684-1.077893v-53.355705a27.486272 27.486272 0 0 1 22.204597-26.785642L512 0c14.874924 0 26.947326 11.533455 26.947326 27.216799v53.355705l-0.107789 1.077893a431.265003 431.265003 0 0 1 401.299576 378.933297l2.802522-0.215579h53.355706a27.486272 27.486272 0 0 1 26.785642 22.204597l0.431157 4.742729c0 14.874924-11.533455 26.947326-27.162905 26.947326l-53.247916-0.053895-0.161684 11.210088a431.157214 431.157214 0 0 1-404.102098 416.929026 5.012203 5.012203 0 0 1 0.107789 1.077893v53.355705a27.486272 27.486272 0 0 1-22.204597 26.785642L512 1023.998383a26.677853 26.677853 0 0 1-26.947326-27.216799v-53.355705l0.161684-1.077893A431.157214 431.157214 0 0 1 80.842786 514.154978H27.217608zM512 134.736629a377.262562 377.262562 0 1 0 0 754.525125 377.262562 377.262562 0 0 0 0-754.525125z m0 242.525933a134.736629 134.736629 0 1 1 0 269.473259 134.736629 134.736629 0 0 1 0-269.473259z" p-id="3079" fill="#ffffff"></path></svg>